<?xml version="1.0" standalone="no"?>
<!DOCTYPE svg PUBLIC "-//W3C//DTD SVG 20010904//EN"
 "http://www.w3.org/TR/2001/REC-SVG-20010904/DTD/svg10.dtd">
<svg version="1.0" xmlns="http://www.w3.org/2000/svg"
 width="108.000000pt" height="108.000000pt" viewBox="0 0 108.000000 108.000000"
 preserveAspectRatio="xMidYMid meet">
<metadata>
Created by potrace 1.11, written by Peter Selinger 2001-2013
</metadata>
<g transform="translate(0.000000,108.000000) scale(0.100000,-0.100000)"
fill="#000000" stroke="none">
<path d="M374 1060 c-160 -51 -304 -197 -354 -358 -25 -81 -27 -234 -4 -313
52 -177 196 -321 373 -373 70 -20 238 -21 304 -1 147 44 268 148 338 290 43
87 44 90 48 206 2 88 -1 131 -14 175 -52 181 -195 325 -374 378 -78 23 -238
21 -317 -4z"/>
</g>
</svg>
